<svg width="1200" height="600" viewBox="0 0 1200 600" fill="none" xmlns="http://www.w3.org/2000/svg">
<rect width="1200" height="600" fill="#27293A"/>
<circle cx="599.5" cy="299.5" r="87.5" fill="white"/>
<path d="M611.375 289.375C611.375 291.646 610.771 293.667 609.562 295.438C608.375 297.208 606.76 298.594 604.719 299.594C607.094 300.615 608.969 302.104 610.344 304.062C611.74 306.021 612.438 308.24 612.438 310.719C612.438 314.656 611.104 317.792 608.438 320.125C605.792 322.458 602.302 323.625 597.969 323.625C593.594 323.625 590.083 322.458 587.438 320.125C584.812 317.771 583.5 314.635 583.5 310.719C583.5 308.26 584.167 306.042 585.5 304.062C586.854 302.083 588.719 300.583 591.094 299.562C589.073 298.562 587.479 297.177 586.312 295.406C585.146 293.635 584.562 291.625 584.562 289.375C584.562 285.542 585.792 282.5 588.25 280.25C590.708 278 593.948 276.875 597.969 276.875C601.969 276.875 605.198 278 607.656 280.25C610.135 282.5 611.375 285.542 611.375 289.375ZM606.656 310.594C606.656 308.052 605.844 305.979 604.219 304.375C602.615 302.771 600.51 301.969 597.906 301.969C595.302 301.969 593.208 302.76 591.625 304.344C590.062 305.927 589.281 308.01 589.281 310.594C589.281 313.177 590.042 315.208 591.562 316.688C593.104 318.167 595.24 318.906 597.969 318.906C600.677 318.906 602.802 318.167 604.344 316.688C605.885 315.188 606.656 313.156 606.656 310.594ZM597.969 281.625C595.698 281.625 593.854 282.333 592.438 283.75C591.042 285.146 590.344 287.052 590.344 289.469C590.344 291.781 591.031 293.656 592.406 295.094C593.802 296.51 595.656 297.219 597.969 297.219C600.281 297.219 602.125 296.51 603.5 295.094C604.896 293.656 605.594 291.781 605.594 289.469C605.594 287.156 604.875 285.271 603.438 283.812C602 282.354 600.177 281.625 597.969 281.625Z" fill="#27293A"/>
</svg>
