<svg xmlns="http://www.w3.org/2000/svg" viewBox="0 0 64 64"><g id="Layer_42" data-name="Layer 42"><path d="M49.14,22.36,46.54,25a1.39,1.39,0,0,1-2-2l4.78-4.77a3.39,3.39,0,0,0-4.79-4.79l-2,2.05a1.38,1.38,0,0,1-2-2L44.14,10a3.38,3.38,0,1,0-4.78-4.77L26.43,18.12a1,1,0,0,0,1.42,1.41L40.77,6.6a1.38,1.38,0,1,1,1.95,2l-3.57,3.57a3.38,3.38,0,0,0,4.79,4.78l2.05-2a1.38,1.38,0,1,1,1.95,1.95l-4.77,4.78a3.4,3.4,0,0,0,2.39,5.77,3.36,3.36,0,0,0,2.39-1l2.6-2.6a1.38,1.38,0,1,1,2,1.95L43.27,35a1,1,0,0,0,1.41,1.42l9.23-9.23A3.38,3.38,0,0,0,49.14,22.36Z"/><path d="M60,16.26A3.38,3.38,0,0,0,55.23,21,3.38,3.38,0,0,0,60,16.26ZM58.6,19.63a1.38,1.38,0,0,1-2-2A1.38,1.38,0,0,1,58.6,19.63Z"/><path d="M25.17,20.79a1,1,0,0,0-1.41,0L13.27,31.28a1.77,1.77,0,0,1-.16.22L9.34,38.09A1,1,0,0,0,9.5,39.3l4.38,4.37-9.19,9.2a3.71,3.71,0,0,0,5.24,5.24l9.2-9.19L23.5,53.3a1,1,0,0,0,1.21.16l6.59-3.77a1.77,1.77,0,0,1,.22-.16L42,39a1,1,0,0,0,0-1.41Zm-.79,30.55L19.83,46.8a1,1,0,0,0-1.41,0l-9.9,9.9a1.75,1.75,0,0,1-2.42,0,1.73,1.73,0,0,1,0-2.42l9.9-9.9A1,1,0,0,0,16,43l-4.54-4.55,2.74-4.79,15,15Zm6.43-3.93L15.39,32l9.08-9.08,1.29,1.3L23.15,28.1,27,25.49l5.61,5.61-2.18,3.44,3.44-2.18L37,35.45l-3.57,4.88,4.88-3.57,1.58,1.57Z"/></g></svg>